<svg width="144" height="122" viewBox="0 0 144 122" fill="none" xmlns="http://www.w3.org/2000/svg">
<path d="M127.11 59.0359V22.5713C127.11 22.5666 127.106 22.5631 127.106 22.5584C127.104 22.3056 127.056 22.0494 126.946 21.8037C126.909 21.7206 126.841 21.6656 126.794 21.5913C126.75 21.5197 126.708 21.4613 126.655 21.3966C126.434 21.1278 126.168 20.9137 125.849 20.8003C125.84 20.7969 125.836 20.7862 125.826 20.7831L99.9997 12.0525C99.9972 12.0516 99.9944 12.0509 99.9919 12.05L64.645 0.100313C64.2532 -0.0334375 63.8269 -0.0334375 63.435 0.100313L2.25379 20.8175C2.15129 20.8525 2.0766 20.9241 1.98441 20.9738C1.93129 21.0016 1.8691 20.9987 1.81816 21.0319C1.78629 21.0528 1.77316 21.0912 1.74285 21.1141C1.55816 21.2525 1.40973 21.4184 1.28879 21.6097C1.25973 21.6556 1.21691 21.6888 1.19191 21.7369C1.06254 21.9847 0.995352 22.2575 0.985664 22.5422C0.985039 22.5606 0.972226 22.5762 0.972226 22.595L0.539102 89.5997C0.534414 90.3303 0.951602 90.9987 1.61066 91.3144L64.7438 121.543C65.0019 121.668 65.2807 121.728 65.5597 121.728L65.561 121.727L65.5622 121.728C65.8457 121.728 66.136 121.663 66.4082 121.527L100.943 104.175C105.413 107.662 111.015 109.761 117.11 109.761C131.641 109.761 143.464 97.9381 143.464 83.4069C143.464 72.4153 136.694 62.9838 127.11 59.0359ZM117.11 57.0522C105.055 57.0522 94.8888 65.1981 91.7647 76.2669L75.7585 83.4503C74.8066 83.8766 74.3804 84.9944 74.8088 85.9441C75.1222 86.6447 75.8113 87.0597 76.5304 87.0597C76.7907 87.0597 77.0535 87.0066 77.3025 86.8938L90.8875 80.7969C90.8025 81.6559 90.7553 82.5256 90.7553 83.4066C90.7553 85.2316 90.9428 87.0134 91.2978 88.7347L78.5588 94.8194C77.6185 95.2687 77.2197 96.3959 77.6691 97.3363C77.9919 98.0138 78.6694 98.4103 79.3747 98.4103C79.6466 98.4103 79.9232 98.3528 80.186 98.2259L92.3716 92.4053C93.611 95.8009 95.521 98.8691 97.9541 101.451L67.4663 116.768L67.8735 50.195L123.335 25.4781V57.8263C121.335 57.3391 119.257 57.0522 117.11 57.0522ZM27.6266 34.9928L40.0238 40.1691V59.5253L33.9094 53.4822C33.3632 52.9428 32.545 52.7884 31.8397 53.0903L27.6266 54.8928V34.9928ZM30.6288 32.1544L82.8316 10.2344L94.0619 14.0309L41.7322 36.7906L30.6288 32.1544ZM99.3885 15.8316L120.043 22.8138L65.971 46.9116L46.5619 38.8072L99.3885 15.8316ZM64.041 3.8825L77.43 8.40875L25.7382 30.1125L8.20285 22.7903L64.041 3.8825ZM4.7291 25.4316L23.8513 33.4162V57.7553C23.8513 58.3891 24.1694 58.9816 24.6994 59.3319C25.2272 59.68 25.9 59.7397 26.481 59.4909L32.1575 57.0619L40.5835 65.3913C40.9454 65.7463 41.4247 65.9353 41.911 65.9353C42.1575 65.9353 42.4041 65.8894 42.6394 65.79C43.3422 65.4972 43.7988 64.8081 43.7988 64.0475V41.7459L64.0966 50.2216L63.691 116.851L4.32348 88.4266L4.7291 25.4316ZM117.11 105.986C104.66 105.986 94.5303 95.8569 94.5303 83.4069C94.5303 70.9569 104.66 60.8275 117.11 60.8275C129.56 60.8275 139.689 70.9569 139.689 83.4069C139.689 95.8569 129.56 105.986 117.11 105.986Z" fill="#0E1422"/>
<rect x="126.984" y="72.3945" width="3.81046" height="27.3987" rx="1.90523" transform="rotate(47.7511 126.984 72.3945)" fill="#E17862"/>
<rect x="107.367" y="75.228" width="3.81046" height="27.3987" rx="1.90523" transform="rotate(-43.5195 107.367 75.228)" fill="#E17862"/>
</svg>
