<svg width="29" height="24" viewBox="0 0 29 24" fill="none" xmlns="http://www.w3.org/2000/svg">
<path d="M5.80906 5.45252H27.8329L25.0385 15.2311C24.8279 15.9672 24.3834 16.6147 23.7721 17.0756C23.1608 17.5366 22.416 17.7859 21.6503 17.7859H9.84558C8.97778 17.7863 8.14031 17.4666 7.49365 16.8879C6.84699 16.3092 6.43661 15.5122 6.34115 14.6497L4.92811 1.92871H1.4043" stroke="#171717" stroke-width="2" stroke-linecap="round" stroke-linejoin="round"/>
<path d="M9.33222 23.9525C10.3053 23.9525 11.0941 23.1637 11.0941 22.1906C11.0941 21.2175 10.3053 20.4287 9.33222 20.4287C8.35914 20.4287 7.57031 21.2175 7.57031 22.1906C7.57031 23.1637 8.35914 23.9525 9.33222 23.9525Z" fill="#171717"/>
<path d="M23.4279 23.9525C24.401 23.9525 25.1898 23.1637 25.1898 22.1906C25.1898 21.2175 24.401 20.4287 23.4279 20.4287C22.4548 20.4287 21.666 21.2175 21.666 22.1906C21.666 23.1637 22.4548 23.9525 23.4279 23.9525Z" fill="#171717"/>
</svg>
