<svg width="21" height="22" viewBox="0 0 21 22" fill="none" xmlns="http://www.w3.org/2000/svg">
<rect width="21" height="21" transform="translate(0 0.5)" fill="white"/>
<path d="M14.6016 3.78125C12.9076 3.78125 11.4245 4.50969 10.5 5.74098C9.57551 4.50969 8.09238 3.78125 6.39844 3.78125C5.05003 3.78277 3.75728 4.3191 2.80382 5.27257C1.85035 6.22603 1.31402 7.51878 1.3125 8.86719C1.3125 14.6094 9.82652 19.2573 10.1891 19.4492C10.2847 19.5006 10.3915 19.5275 10.5 19.5275C10.6085 19.5275 10.7153 19.5006 10.8109 19.4492C11.1735 19.2573 19.6875 14.6094 19.6875 8.86719C19.686 7.51878 19.1497 6.22603 18.1962 5.27257C17.2427 4.3191 15.95 3.78277 14.6016 3.78125ZM10.5 18.1203C9.00211 17.2475 2.625 13.2714 2.625 8.86719C2.6263 7.86681 3.02428 6.90778 3.73165 6.2004C4.43903 5.49303 5.39806 5.09505 6.39844 5.09375C7.99395 5.09375 9.33352 5.94359 9.89297 7.30859C9.94241 7.42896 10.0265 7.53191 10.1346 7.60436C10.2427 7.67681 10.3699 7.71549 10.5 7.71549C10.6301 7.71549 10.7573 7.67681 10.8654 7.60436C10.9735 7.53191 11.0576 7.42896 11.107 7.30859C11.6665 5.94113 13.0061 5.09375 14.6016 5.09375C15.6019 5.09505 16.561 5.49303 17.2683 6.2004C17.9757 6.90778 18.3737 7.86681 18.375 8.86719C18.375 13.2649 11.9963 17.2467 10.5 18.1203Z" fill="#2E838F"/>
</svg>