<svg width="47" height="48" viewBox="0 0 47 48" fill="none" xmlns="http://www.w3.org/2000/svg">
<path d="M39.9894 8.44138C39.9894 8.34997 40.0618 8.27586 40.1511 8.27586H44.3544C44.4436 8.27586 44.516 8.34997 44.516 8.44138V12.4138C44.516 12.5052 44.4436 12.5793 44.3544 12.5793H40.1511C40.0618 12.5793 39.9894 12.5052 39.9894 12.4138V8.44138Z" fill="#2E838F"/>
<path d="M44.516 9.26897H46.1327C46.3113 9.26897 46.456 9.41718 46.456 9.6V11.2552C46.456 11.438 46.3113 11.5862 46.1327 11.5862H44.516V9.26897Z" fill="#2E838F"/>
<path d="M39.9894 17.3793C39.9894 17.2879 40.0618 17.2138 40.1511 17.2138H44.3544C44.4436 17.2138 44.516 17.2879 44.516 17.3793V21.3517C44.516 21.4431 44.4436 21.5172 44.3544 21.5172H40.1511C40.0618 21.5172 39.9894 21.4431 39.9894 21.3517V17.3793Z" fill="#2E838F"/>
<path d="M44.516 18.2069H46.1327C46.3113 18.2069 46.456 18.3551 46.456 18.5379V20.1931C46.456 20.3759 46.3113 20.5241 46.1327 20.5241H44.516V18.2069Z" fill="#2E838F"/>
<path d="M39.9894 26.3172C39.9894 26.2258 40.0618 26.1517 40.1511 26.1517H44.3544C44.4436 26.1517 44.516 26.2258 44.516 26.3172V30.2897C44.516 30.3811 44.4436 30.4552 44.3544 30.4552H40.1511C40.0618 30.4552 39.9894 30.3811 39.9894 30.2897V26.3172Z" fill="#2E838F"/>
<path d="M44.516 27.1448H46.1327C46.3113 27.1448 46.456 27.293 46.456 27.4759V29.131C46.456 29.3139 46.3113 29.4621 46.1327 29.4621H44.516V27.1448Z" fill="#2E838F"/>
<path d="M39.9894 35.2552C39.9894 35.1638 40.0618 35.0897 40.1511 35.0897H44.3544C44.4436 35.0897 44.516 35.1638 44.516 35.2552V39.2276C44.516 39.319 44.4436 39.3931 44.3544 39.3931H40.1511C40.0618 39.3931 39.9894 39.319 39.9894 39.2276V35.2552Z" fill="#2E838F"/>
<path d="M44.516 36.0828H46.1327C46.3113 36.0828 46.456 36.231 46.456 36.4138V38.069C46.456 38.2518 46.3113 38.4 46.1327 38.4H44.516V36.0828Z" fill="#2E838F"/>
<path d="M7.00959 39.2276C7.00959 39.319 6.93721 39.3931 6.84793 39.3931H2.64462C2.55534 39.3931 2.48296 39.319 2.48296 39.2276L2.48296 35.2552C2.48296 35.1638 2.55534 35.0897 2.64462 35.0897H6.84793C6.93721 35.0897 7.00959 35.1638 7.00959 35.2552V39.2276Z" fill="#2E838F"/>
<path d="M2.48296 38.4H0.8663C0.687729 38.4 0.542969 38.2518 0.542969 38.069L0.542969 36.4138C0.542969 36.231 0.687729 36.0828 0.8663 36.0828H2.48296L2.48296 38.4Z" fill="#2E838F"/>
<path d="M7.0096 30.2897C7.0096 30.3811 6.93721 30.4552 6.84793 30.4552H2.64462C2.55534 30.4552 2.48296 30.3811 2.48296 30.2897L2.48296 26.3172C2.48296 26.2258 2.55534 26.1517 2.64462 26.1517H6.84793C6.93722 26.1517 7.0096 26.2258 7.0096 26.3172L7.0096 30.2897Z" fill="#2E838F"/>
<path d="M2.48296 29.4621H0.866301C0.68773 29.4621 0.542969 29.3139 0.54297 29.131L0.54297 27.4759C0.54297 27.293 0.68773 27.1448 0.866301 27.1448H2.48296L2.48296 29.4621Z" fill="#2E838F"/>
<path d="M7.0096 21.3517C7.0096 21.4431 6.93722 21.5172 6.84793 21.5172H2.64462C2.55534 21.5172 2.48296 21.4431 2.48296 21.3517L2.48296 17.3793C2.48296 17.2879 2.55534 17.2138 2.64462 17.2138H6.84793C6.93722 17.2138 7.0096 17.2879 7.0096 17.3793L7.0096 21.3517Z" fill="#2E838F"/>
<path d="M2.48296 20.5241H0.866302C0.687731 20.5241 0.54297 20.3759 0.54297 20.1931L0.54297 18.5379C0.54297 18.3551 0.687731 18.2069 0.866302 18.2069H2.48296L2.48296 20.5241Z" fill="#2E838F"/>
<path d="M7.0096 12.4138C7.0096 12.5052 6.93722 12.5793 6.84793 12.5793H2.64462C2.55534 12.5793 2.48296 12.5052 2.48296 12.4138L2.48296 8.44138C2.48296 8.34997 2.55534 8.27586 2.64462 8.27586H6.84793C6.93722 8.27586 7.0096 8.34997 7.0096 8.44138V12.4138Z" fill="#2E838F"/>
<path d="M2.48296 11.5862H0.866302C0.687731 11.5862 0.542971 11.438 0.542971 11.2552L0.542971 9.6C0.542971 9.41717 0.687732 9.26896 0.866303 9.26896H2.48296L2.48296 11.5862Z" fill="#2E838F"/>
<rect x="9.79297" y="1.25" width="26.631" height="45.5" rx="1.75" stroke="#101010" stroke-width="2.5"/>
</svg>
