<svg width="56" height="56" viewBox="0 0 56 56" fill="none" xmlns="http://www.w3.org/2000/svg">
<path d="M28.0522 0.555664H28.0006C20.722 0.555664 13.7416 3.44708 8.5948 8.59383C3.44805 13.7406 0.556641 20.7211 0.556641 27.9997C0.556641 35.2783 3.44805 42.2588 8.5948 47.4055C13.7416 52.5522 20.722 55.4437 28.0006 55.4437C28.2393 55.4437 28.4683 55.3488 28.637 55.1801C28.8058 55.0113 28.9006 54.7824 28.9006 54.5437C28.9006 54.305 28.8058 54.076 28.637 53.9073C28.4683 53.7385 28.2393 53.6437 28.0006 53.6437C21.1994 53.6437 14.6768 50.9419 9.86759 46.1327C5.05841 41.3235 2.35664 34.8009 2.35664 27.9997C2.35664 21.1985 5.05841 14.6758 9.86759 9.86662C14.6768 5.05743 21.1994 2.35566 28.0006 2.35566H28.0492C32.7312 2.36489 37.3214 3.65562 41.322 6.08793C45.3227 8.52023 48.5811 12.0013 50.7442 16.1537C52.9072 20.3061 53.8922 24.9714 53.5925 29.6438C53.2928 34.3162 51.7197 38.8175 49.0438 42.6595C48.648 43.2255 48.1327 43.6975 47.5342 44.0423C46.9357 44.387 46.2688 44.596 45.5806 44.6545C44.8788 44.7161 44.1721 44.6232 43.51 44.3824C42.848 44.1416 42.2467 43.7587 41.7484 43.2607L40.9006 42.4099C41.227 42.2149 41.548 42.0067 41.8606 41.7823C42.4909 41.3404 43.0814 40.8443 43.6252 40.2997H43.6282C44.0918 39.8293 44.3508 39.1949 44.3489 38.5345C44.347 37.8741 44.0843 37.2411 43.618 36.7735L38.9572 32.1181C38.4889 31.6509 37.8544 31.3886 37.1929 31.3886C36.5315 31.3886 35.897 31.6509 35.4286 32.1181L34.7326 32.8117C34.5038 33.0388 34.2527 33.2424 33.9832 33.4195C33.0885 33.998 32.0228 34.2532 30.9631 34.1426C29.9034 34.032 28.9133 33.5624 28.1572 32.8117L22.0666 26.7211C21.4942 26.143 21.1735 25.362 21.1747 24.5484C21.1758 23.7349 21.4986 22.9548 22.0726 22.3783L23.8822 20.5597C24.1145 20.3286 24.2988 20.0539 24.4246 19.7514C24.5504 19.4489 24.6152 19.1245 24.6152 18.7969C24.6152 18.4692 24.5504 18.1448 24.4246 17.8423C24.2988 17.5398 24.1145 17.2651 23.8822 17.0341L19.2292 12.3817C18.9989 12.1478 18.7241 11.9623 18.4211 11.8361C18.1181 11.7099 17.7929 11.6455 17.4646 11.6467C16.8386 11.6443 16.2352 11.8803 15.7768 12.3067C15.749 12.3284 15.7226 12.3519 15.6976 12.3769C15.1573 12.9179 14.6635 13.5036 14.2216 14.1277C12.4995 16.5284 11.5926 19.4181 11.6341 22.3724C11.6756 25.3267 12.6632 28.1898 14.452 30.5413C17.5932 34.7046 21.3004 38.4088 25.4662 41.5465C27.8754 43.3724 30.8145 44.3625 33.8374 44.3665C35.6835 44.3644 37.5101 43.9899 39.208 43.2655L40.4752 44.5345C41.1583 45.22 41.9839 45.7468 42.8934 46.0776C43.8028 46.4084 44.7739 46.535 45.7378 46.4485C46.6885 46.3671 47.6096 46.0777 48.436 45.6007C49.2624 45.1237 49.9738 44.4709 50.5198 43.6885C53.384 39.5769 55.0679 34.7598 55.3889 29.7593C55.71 24.7588 54.6559 19.7658 52.3411 15.3218C50.0262 10.8777 46.5389 7.15226 42.2572 4.54928C37.9756 1.9463 33.063 0.565175 28.0522 0.555664ZM26.5522 40.1089C22.5199 37.0737 18.9315 33.49 15.8908 29.4619C14.4463 27.5616 13.6003 25.2742 13.4608 22.8912C13.3212 20.5083 13.8944 18.1378 15.1072 16.0819L18.439 19.4143C18.6079 19.5831 18.8369 19.678 19.0756 19.678C19.3144 19.678 19.5434 19.5831 19.7122 19.4143C19.8811 19.2454 19.9759 19.0164 19.9759 18.7777C19.9759 18.5389 19.8811 18.3099 19.7122 18.1411L16.1512 14.5777C16.3912 14.2777 16.6432 13.9879 16.9138 13.7131C16.9379 13.6943 16.9609 13.6743 16.9828 13.6531C17.1138 13.527 17.2887 13.457 17.4705 13.4576C17.6522 13.4583 17.8266 13.5297 17.9566 13.6567L22.6126 18.3127C22.6776 18.3772 22.729 18.4539 22.764 18.5385C22.7991 18.6231 22.8169 18.7137 22.8166 18.8053C22.8165 18.8955 22.7984 18.9848 22.7634 19.0679C22.7284 19.151 22.6771 19.2264 22.6126 19.2895L20.7916 21.1159C19.8839 22.0307 19.3745 23.2672 19.3745 24.556C19.3745 25.8447 19.8839 27.0812 20.7916 27.9961L26.8846 34.0843C27.8436 35.035 29.0757 35.6623 30.4086 35.8786C31.7416 36.095 33.1088 35.8895 34.3192 35.2909L37.9792 38.9509C38.149 39.1148 38.3763 39.2055 38.6123 39.2035C38.8483 39.2014 39.074 39.1068 39.2409 38.9399C39.4077 38.773 39.5024 38.5473 39.5044 38.3113C39.5065 38.0753 39.4158 37.848 39.2518 37.6783L35.8246 34.2511C35.8846 34.1959 35.95 34.1437 36.0046 34.0867L36.7006 33.3877C36.8312 33.2574 37.0082 33.1842 37.1926 33.1842C37.3771 33.1842 37.554 33.2574 37.6846 33.3877L42.3454 38.0431C42.4757 38.1736 42.5493 38.3502 42.5502 38.5347C42.5511 38.7191 42.4792 38.8965 42.3502 39.0283C41.8788 39.5 41.3668 39.9295 40.8202 40.3117C38.733 41.8093 36.2203 42.5978 33.6516 42.5613C31.0829 42.5248 28.5937 41.6652 26.5498 40.1089H26.5522Z" fill="#2E838F"/>
</svg>
