<svg width="18" height="18" viewBox="0 0 18 18" fill="none" xmlns="http://www.w3.org/2000/svg">
<path d="M7.85873 1.01246C8.21795 -0.0931106 9.78205 -0.0931125 10.1413 1.01246L11.4248 4.96262C11.5854 5.45704 12.0461 5.7918 12.566 5.7918H16.7195C17.8819 5.7918 18.3653 7.27933 17.4248 7.96262L14.0646 10.4039C13.644 10.7095 13.468 11.2512 13.6287 11.7456L14.9122 15.6957C15.2714 16.8013 14.006 17.7207 13.0655 17.0374L9.70534 14.5961C9.28476 14.2905 8.71524 14.2905 8.29466 14.5961L4.93446 17.0374C3.994 17.7207 2.72862 16.8013 3.08784 15.6957L4.37133 11.7456C4.53198 11.2512 4.35599 10.7095 3.9354 10.4039L0.575201 7.96262C-0.365256 7.27934 0.118075 5.7918 1.28054 5.7918H5.43398C5.95385 5.7918 6.4146 5.45704 6.57525 4.96262L7.85873 1.01246Z" fill="#2E838F"/>
</svg>
