<svg width="40" height="44" viewBox="0 0 40 44" fill="none" xmlns="http://www.w3.org/2000/svg">
<path d="M19.9997 43.7706C19.9438 43.7706 19.8874 43.7609 19.832 43.7404C7.7712 39.3104 1.09957 28.0778 0.000929807 10.3551C-0.0136604 10.1182 0.144887 9.90522 0.375899 9.85124C5.88954 8.56925 10.7714 6.55774 14.8849 3.87217C15.1101 3.72529 15.4111 3.78852 15.558 4.01369C15.7049 4.23887 15.6416 4.5404 15.4165 4.68679C11.3079 7.36896 6.45856 9.39262 0.997928 10.7038C2.15736 28.0059 8.43019 38.5166 20.167 42.8281C20.4195 42.9205 20.5483 43.2001 20.4559 43.452C20.384 43.6485 20.1977 43.7706 19.9997 43.7706Z" fill="white"/>
<path d="M20 43.7703C19.9018 43.7703 19.8045 43.7402 19.7218 43.6828C19.5915 43.5919 19.5137 43.443 19.5137 43.284V31.5272C19.5137 31.2583 19.7316 31.0409 20 31.0409C20.2685 31.0409 20.4864 31.2583 20.4864 31.5272V42.5788C31.802 38.12 37.8638 27.6807 39.0013 10.7036C31.5739 8.92063 25.3532 5.85571 20.4864 1.5832V8.24947C20.4864 8.51793 20.2685 8.73582 20 8.73582C19.7316 8.73582 19.5137 8.51793 19.5137 8.24947V0.486018C19.5137 0.292455 19.6284 0.116886 19.8064 0.0400437C19.9845 -0.0367982 20.1911 -0.00129529 20.3322 0.131476C25.271 4.75317 31.7612 8.02381 39.6239 9.85148C39.8554 9.90547 40.0139 10.1185 39.9988 10.3553C38.9002 28.0776 32.2286 39.3106 20.1678 43.7402C20.1133 43.7601 20.0564 43.7703 20 43.7703Z" fill="white"/>
<path d="M19.9996 32.0133C17.6223 32.0133 15.3112 31.1739 13.4909 29.6506C13.2851 29.4785 13.2579 29.1716 13.4301 28.9659C13.6022 28.7597 13.9086 28.732 14.1153 28.9051C15.7606 30.2824 17.8504 31.0411 19.9996 31.0411C25.0565 31.0411 29.1705 26.9271 29.1705 21.8702C29.1705 16.8132 25.0565 12.6983 19.9996 12.6983C14.9426 12.6983 10.8282 16.8122 10.8282 21.8697C10.8282 22.1381 10.6103 22.356 10.3418 22.356C10.0733 22.356 9.85547 22.1381 9.85547 21.8697C9.85547 16.2763 14.4062 11.7256 19.9996 11.7256C25.593 11.7256 30.1432 16.2763 30.1432 21.8697C30.1432 27.4631 25.593 32.0133 19.9996 32.0133Z" fill="white"/>
<path d="M19.3768 25.615C19.2372 25.615 19.104 25.5547 19.0121 25.4502L15.8499 21.8566C15.6724 21.6548 15.6918 21.3479 15.8936 21.1704C16.0955 20.9924 16.4028 21.0128 16.5799 21.2141L19.3744 24.389L24.7056 18.2285C24.8807 18.0252 25.1886 18.0038 25.3914 18.1789C25.5947 18.3549 25.6166 18.6618 25.441 18.8651L19.7445 25.4468C19.6526 25.5533 19.5193 25.6145 19.3788 25.615C19.3783 25.615 19.3773 25.615 19.3768 25.615Z" fill="white"/>
</svg>
