<svg width="40" height="46" viewBox="0 0 40 46" fill="none" xmlns="http://www.w3.org/2000/svg">
<path d="M20.0005 35.7168C25.9119 35.7168 30.7041 30.9246 30.7041 25.0132C30.7041 19.1017 25.9119 14.3096 20.0005 14.3096C14.089 14.3096 9.29688 19.1017 9.29688 25.0132C9.29688 30.9246 14.089 35.7168 20.0005 35.7168Z" fill="#2E838F"/>
<path d="M19.9997 39.2816C16.6584 39.2816 13.4097 38.1025 10.8519 35.9603C10.6403 35.7832 10.6122 35.4676 10.7893 35.256C10.9664 35.0434 11.2816 35.0153 11.4942 35.1934C13.8725 37.184 16.893 38.2811 19.9997 38.2811C27.3095 38.2811 33.2566 32.3339 33.2566 25.0241C33.2566 17.7143 27.3095 11.7671 19.9997 11.7671C12.8569 11.7671 7.01536 17.4446 6.75222 24.5238H8.92486C9.201 24.5238 9.42512 24.7474 9.42512 25.0241C9.42512 25.3007 9.201 25.5244 8.92486 25.5244H6.24245C5.96631 25.5244 5.74219 25.3007 5.74219 25.0241C5.74219 17.1625 12.138 10.7666 19.9997 10.7666C27.8613 10.7666 34.2572 17.1625 34.2572 25.0241C34.2572 32.8857 27.8613 39.2816 19.9997 39.2816Z" fill="white"/>
<path d="M20 45.0236C8.97221 45.0236 0 36.0514 0 25.0236C0 15.3866 6.78656 7.19728 16.1985 5.38983V3.98009H14.0239C13.7477 3.98009 13.5236 3.75597 13.5236 3.47983C13.5236 1.56082 15.0844 0 17.0034 0H22.9966C24.9156 0 26.4764 1.56082 26.4764 3.47983C26.4764 3.75597 26.2528 3.98009 25.9761 3.98009H23.801V5.38983C33.2139 7.19678 40 15.3851 40 25.0236C40 36.0514 31.0283 45.0236 20 45.0236ZM17.199 5.74902C17.1995 5.75402 17.2 5.75952 17.2005 5.76403C17.2225 6.02316 17.0455 6.25578 16.7893 6.29931C7.64051 7.85712 1.00053 15.7318 1.00053 25.0236C1.00053 35.5001 9.5235 44.0231 20 44.0231C30.4765 44.0231 38.9995 35.5001 38.9995 25.0236C38.9995 15.7298 32.3575 7.85512 23.2057 6.29881C22.9496 6.25528 22.7695 6.02266 22.7915 5.76353C22.793 5.74201 22.7965 5.7205 22.801 5.69999V3.47983C22.801 3.20368 23.0246 2.97956 23.3012 2.97956H25.4254C25.1932 1.85147 24.1927 1.00053 22.9966 1.00053H17.0034C15.8078 1.00053 14.8068 1.85147 14.5752 2.97956H16.6993C16.9754 2.97956 17.1995 3.20368 17.1995 3.47983V5.74902H17.199Z" fill="white"/>
<path d="M18.8812 30.9892H12.2738C12.0767 30.9892 11.8981 30.8736 11.8175 30.6935C11.7365 30.5139 11.769 30.3038 11.9001 30.1568L17.7006 23.6338C18.6876 22.5243 18.5876 20.8189 17.478 19.8318C16.3679 18.8453 14.663 18.9449 13.6755 20.0545C13.4924 20.2606 13.1757 20.2796 12.9691 20.096C12.7625 19.9124 12.744 19.5962 12.9276 19.3896C14.2808 17.8678 16.62 17.7307 18.1423 19.0845C19.6641 20.4382 19.8012 22.7774 18.4475 24.2992L13.3878 29.9887H18.8812C19.1574 29.9887 19.3815 30.2123 19.3815 30.4889C19.3815 30.7656 19.1574 30.9892 18.8812 30.9892Z" fill="white"/>
<path d="M25.9337 30.9896C25.6571 30.9896 25.4335 30.7659 25.4335 30.4893V28.4998H20.1567C19.9751 28.4998 19.808 28.4017 19.7195 28.2431C19.6314 28.0845 19.6354 27.8909 19.731 27.7364L25.508 18.3879C25.6251 18.1978 25.8542 18.1078 26.0703 18.1698C26.2854 18.2309 26.434 18.4275 26.434 18.6511V27.4992H28.1689C28.4456 27.4992 28.6692 27.7229 28.6692 27.9995C28.6692 28.2761 28.4456 28.4998 28.1689 28.4998H26.434V30.4898C26.434 30.7659 26.2104 30.9896 25.9337 30.9896ZM21.0537 27.4992H25.4335V20.4125L21.0537 27.4992Z" fill="white"/>
<path d="M31.5382 25.524H31.0745C30.7978 25.524 30.5742 25.3003 30.5742 25.0237C30.5742 24.7471 30.7978 24.5234 31.0745 24.5234H31.5382C31.8149 24.5234 32.0385 24.7471 32.0385 25.0237C32.0385 25.3003 31.8149 25.524 31.5382 25.524Z" fill="white"/>
<path d="M20.0003 14.4486C19.7241 14.4486 19.5 14.2245 19.5 13.9484V13.4846C19.5 13.2085 19.7241 12.9844 20.0003 12.9844C20.2764 12.9844 20.5005 13.2085 20.5005 13.4846V13.9484C20.5005 14.225 20.2764 14.4486 20.0003 14.4486Z" fill="white"/>
<path d="M20.0003 37.0629C19.7241 37.0629 19.5 36.8393 19.5 36.5626V36.0989C19.5 35.8223 19.7241 35.5986 20.0003 35.5986C20.2764 35.5986 20.5005 35.8223 20.5005 36.0989V36.5626C20.5005 36.8393 20.2764 37.0629 20.0003 37.0629Z" fill="white"/>
</svg>
