<svg width="41" height="34" viewBox="0 0 41 34" fill="none" xmlns="http://www.w3.org/2000/svg">
<path d="M24.519 15.174H9.75499C9.50966 15.174 9.31055 14.9749 9.31055 14.7296C9.31055 14.4843 9.50966 14.2852 9.75499 14.2852H24.519C24.7648 14.2852 24.9634 14.4843 24.9634 14.7296C24.9634 14.9749 24.7648 15.174 24.519 15.174Z" fill="white"/>
<path d="M23.508 11.0217H6.24132C5.99599 11.0217 5.79688 10.8226 5.79688 10.5773C5.79688 10.3319 5.99599 10.1328 6.24132 10.1328H23.508C23.7538 10.1328 23.9524 10.3319 23.9524 10.5773C23.9524 10.8226 23.7533 11.0217 23.508 11.0217Z" fill="white"/>
<path d="M11.772 26.2102H2.94178C1.59556 26.2102 0.5 25.1147 0.5 23.7684V2.44178C0.5 1.09556 1.59556 0 2.94178 0H38.0582C39.4044 0 40.5 1.09556 40.5 2.44178V4.15822C40.5 4.40355 40.3013 4.60266 40.0555 4.60266C39.8098 4.60266 39.6111 4.40355 39.6111 4.15822V2.44178C39.6111 1.58533 38.9146 0.888888 38.0582 0.888888H2.94178C2.08533 0.888888 1.38889 1.58533 1.38889 2.44178V23.768C1.38889 24.6244 2.08533 25.3209 2.94178 25.3209H11.772C12.0173 25.3209 12.2164 25.5195 12.2164 25.7653C12.2164 26.0111 12.0173 26.2102 11.772 26.2102Z" fill="white"/>
<path d="M20.8639 26.2102H16.9933C16.7479 26.2102 16.5488 26.0115 16.5488 25.7657C16.5488 25.52 16.7479 25.3213 16.9933 25.3213H20.8639C21.1097 25.3213 21.3084 25.52 21.3084 25.7657C21.3084 26.0115 21.1097 26.2102 20.8639 26.2102Z" fill="white"/>
<path d="M38.0581 26.2099H24.7342C24.4884 26.2099 24.2897 26.0113 24.2897 25.7655C24.2897 25.5197 24.4884 25.3211 24.7342 25.3211H38.0581C38.9146 25.3211 39.611 24.6246 39.611 23.7682V21.9006H5.06749C4.82216 21.9006 4.62305 21.7019 4.62305 21.4562C4.62305 21.2104 4.82216 21.0117 5.06749 21.0117H40.0555C40.3013 21.0117 40.4999 21.2104 40.4999 21.4562V23.7682C40.4999 25.1144 39.4044 26.2099 38.0581 26.2099Z" fill="white"/>
<path d="M29.637 33.6338H12.089C11.8436 33.6338 11.6445 33.4351 11.6445 33.1893C11.6445 31.4134 13.0894 29.9685 14.8659 29.9685H15.1828L16.569 25.6302C16.6436 25.3969 16.8952 25.2662 17.1276 25.3427C17.3614 25.4174 17.4903 25.6671 17.4156 25.9014L15.9308 30.5485C15.8721 30.7325 15.7005 30.8574 15.5072 30.8574H14.8654C13.7312 30.8574 12.7836 31.6707 12.5756 32.7449H29.1494C28.9414 31.6707 27.9934 30.8574 26.8596 30.8574H26.2183C26.025 30.8574 25.8539 30.7325 25.7952 30.5485L24.3103 25.9014C24.2352 25.6676 24.3645 25.4174 24.5979 25.3427C24.833 25.2649 25.0819 25.3969 25.1565 25.6302L26.5427 29.9685H26.8596C28.6361 29.9685 30.081 31.4134 30.081 33.1893C30.0814 33.4351 29.8823 33.6338 29.637 33.6338Z" fill="white"/>
<path d="M21.3154 23.7737H20.4132C20.1679 23.7737 19.9688 23.575 19.9688 23.3292C19.9688 23.0834 20.1679 22.8848 20.4132 22.8848H21.3154C21.5612 22.8848 21.7599 23.0834 21.7599 23.3292C21.7599 23.575 21.5612 23.7737 21.3154 23.7737Z" fill="white"/>
</svg>
