<svg width="63" height="31" viewBox="0 0 63 31" fill="none" xmlns="http://www.w3.org/2000/svg">
<path d="M46.0398 26.9149H31.2356C30.8554 26.9149 30.5467 26.6069 30.5467 26.226C30.5467 25.845 30.8554 25.5371 31.2356 25.5371H45.351V1.37778H14.4598V3.8006C14.4598 4.18087 14.1512 4.48949 13.7709 4.48949C13.3907 4.48949 13.082 4.18087 13.082 3.8006V0.688889C13.082 0.308622 13.3907 0 13.7709 0H46.0398C46.4208 0 46.7287 0.308622 46.7287 0.688889V26.226C46.7287 26.6063 46.4208 26.9149 46.0398 26.9149Z" fill="white"/>
<path d="M19.5714 26.9151H13.7709C13.3907 26.9151 13.082 26.6072 13.082 26.2262V22.7563C13.082 22.3753 13.3907 22.0674 13.7709 22.0674C14.1512 22.0674 14.4598 22.3753 14.4598 22.7563V25.5373H19.5714C19.9516 25.5373 20.2603 25.8452 20.2603 26.2262C20.2603 26.6072 19.9516 26.9151 19.5714 26.9151Z" fill="white"/>
<path d="M61.8106 26.915C61.4317 26.915 61.1245 26.6098 61.1217 26.2309L61.0563 16.4921L53.9938 9.07895H46.7274V25.5372H50.6437C51.0247 25.5372 51.3326 25.8451 51.3326 26.2261C51.3326 26.607 51.0247 26.915 50.6437 26.915H46.0385C45.6575 26.915 45.3496 26.607 45.3496 26.2261V8.39006C45.3496 8.00979 45.6575 7.70117 46.0385 7.70117H54.2893C54.4774 7.70117 54.6579 7.77833 54.7881 7.91473L62.2418 15.7391C62.3631 15.8666 62.4306 16.0347 62.432 16.2096L62.4995 26.2213C62.5022 26.6022 62.1957 26.9122 61.8154 26.915C61.814 26.915 61.812 26.915 61.8106 26.915Z" fill="white"/>
<path d="M56.2254 16.9027H50.394C50.013 16.9027 49.7051 16.5947 49.7051 16.2138V8.39006C49.7051 8.00979 50.013 7.70117 50.394 7.70117C50.7749 7.70117 51.0829 8.00979 51.0829 8.39006V15.5256H56.2254C56.6064 15.5256 56.9143 15.8342 56.9143 16.2145C56.9143 16.5947 56.6057 16.9027 56.2254 16.9027Z" fill="white"/>
<path d="M23.2153 30.5602C20.8256 30.5602 18.8809 28.6161 18.8809 26.2264C18.8809 23.8366 20.8249 21.8926 23.2153 21.8926C25.6051 21.8926 27.5491 23.8366 27.5491 26.2264C27.5491 28.6161 25.6044 30.5602 23.2153 30.5602ZM23.2153 23.2704C21.5854 23.2704 20.2586 24.5965 20.2586 26.2264C20.2586 27.8563 21.5847 29.1824 23.2153 29.1824C24.8459 29.1824 26.1714 27.8563 26.1714 26.2264C26.1714 24.5965 24.8453 23.2704 23.2153 23.2704Z" fill="white"/>
<path d="M54.2896 30.5602C51.8991 30.5602 49.9551 28.6161 49.9551 26.2264C49.9551 23.8366 51.8991 21.8926 54.2896 21.8926C56.6793 21.8926 58.6234 23.8366 58.6234 26.2264C58.6234 28.6161 56.6793 30.5602 54.2896 30.5602ZM54.2896 23.2704C52.6597 23.2704 51.3329 24.5965 51.3329 26.2264C51.3329 27.8563 52.6597 29.1824 54.2896 29.1824C55.9195 29.1824 57.2456 27.8563 57.2456 26.2264C57.2456 24.5965 55.9195 23.2704 54.2896 23.2704Z" fill="white"/>
<path d="M29.9045 14.1454H1.18889C0.808622 14.1454 0.5 13.8367 0.5 13.4565C0.5 13.0762 0.808622 12.7676 1.18889 12.7676H29.9045C30.2848 12.7676 30.5934 13.0762 30.5934 13.4565C30.5934 13.8367 30.2848 14.1454 29.9045 14.1454Z" fill="white"/>
<path d="M29.905 8.31332H8.4799C8.09964 8.31332 7.79102 8.0047 7.79102 7.62444C7.79102 7.24417 8.09964 6.93555 8.4799 6.93555H29.9057C30.286 6.93555 30.5946 7.24417 30.5946 7.62444C30.5946 8.0047 30.2853 8.31332 29.905 8.31332Z" fill="white"/>
<path d="M29.905 19.9774H8.4799C8.09964 19.9774 7.79102 19.6695 7.79102 19.2885C7.79102 18.9075 8.09964 18.5996 8.4799 18.5996H29.9057C30.286 18.5996 30.5946 18.9075 30.5946 19.2885C30.5946 19.6695 30.2853 19.9774 29.905 19.9774Z" fill="white"/>
</svg>
