<svg width="171" height="72" viewBox="0 0 171 72" fill="none" xmlns="http://www.w3.org/2000/svg">
<path d="M92.9617 40.7015H86.0253C85.8478 40.7015 85.6556 40.6818 85.4485 40.6423C85.2464 40.598 85.0443 40.5314 84.8421 40.4427C84.6449 40.3539 84.4551 40.2406 84.2727 40.1025C84.0903 39.9595 83.9276 39.7895 83.7847 39.5923C83.6466 39.3901 83.5357 39.1584 83.4519 38.8971C83.3681 38.6309 83.3262 38.3327 83.3262 38.0024V32.7963C83.3262 32.6189 83.3459 32.4291 83.3853 32.2269C83.4297 32.0199 83.4963 31.8177 83.585 31.6205C83.6737 31.4184 83.7896 31.2262 83.9326 31.0437C84.0755 30.8613 84.2456 30.7011 84.4428 30.5631C84.6449 30.4201 84.8766 30.3067 85.1379 30.2229C85.3992 30.1391 85.695 30.0972 86.0253 30.0972H92.9617V32.0199H86.0253C85.7739 32.0199 85.5816 32.0864 85.4485 32.2195C85.3154 32.3526 85.2488 32.5498 85.2488 32.8111V38.0024C85.2488 38.2489 85.3154 38.4411 85.4485 38.5792C85.5866 38.7123 85.7788 38.7788 86.0253 38.7788H92.9617V40.7015Z" fill="#2E838F"/>
<path d="M96.5187 31.0659H94.596V29.3281H96.5187V31.0659ZM96.5187 40.7015H94.596V32.7076H96.5187V40.7015Z" fill="#2E838F"/>
<path d="M105.363 34.6303H101.037C100.776 34.6303 100.579 34.6968 100.445 34.8299C100.312 34.9581 100.246 35.1479 100.246 35.3993V40.7015H98.3231V35.3993C98.3231 35.069 98.365 34.7732 98.4488 34.512C98.5326 34.2507 98.6435 34.0214 98.7815 33.8242C98.9245 33.6221 99.0872 33.452 99.2696 33.314C99.452 33.171 99.6418 33.0552 99.839 32.9664C100.041 32.8777 100.243 32.8136 100.445 32.7742C100.652 32.7298 100.845 32.7076 101.022 32.7076H105.363V34.6303Z" fill="#2E838F"/>
<path d="M114.348 40.7015H109.134C108.868 40.7015 108.577 40.6547 108.262 40.561C107.946 40.4673 107.653 40.3145 107.382 40.1025C107.116 39.8856 106.891 39.6071 106.709 39.2669C106.531 38.9218 106.443 38.5003 106.443 38.0024V35.3993C106.443 35.2169 106.462 35.0247 106.502 34.8225C106.546 34.6204 106.613 34.4208 106.701 34.2236C106.79 34.0214 106.904 33.8292 107.042 33.6468C107.185 33.4643 107.355 33.3041 107.552 33.1661C107.754 33.028 107.986 32.9171 108.247 32.8333C108.508 32.7495 108.804 32.7076 109.134 32.7076H114.348V34.6303H109.134C108.883 34.6303 108.691 34.6944 108.558 34.8225C108.429 34.9507 108.365 35.1479 108.365 35.4141V38.0024C108.365 38.2538 108.432 38.4461 108.565 38.5792C108.698 38.7123 108.893 38.7788 109.149 38.7788H114.348V40.7015Z" fill="#2E838F"/>
<path d="M124.679 39.7328C124.679 39.8708 124.654 39.999 124.605 40.1173C124.555 40.2356 124.486 40.3392 124.398 40.4279C124.314 40.5117 124.213 40.5783 124.094 40.6276C123.981 40.6769 123.858 40.7015 123.725 40.7015H119.376C119.14 40.7015 118.886 40.6744 118.615 40.6202C118.348 40.5659 118.085 40.4797 117.823 40.3613C117.562 40.2381 117.308 40.0853 117.062 39.9029C116.82 39.7155 116.608 39.4912 116.426 39.2299C116.243 38.9637 116.096 38.658 115.982 38.3129C115.874 37.9678 115.819 37.5784 115.819 37.1445V32.7076H117.742V37.1445C117.742 37.396 117.784 37.6228 117.868 37.8249C117.957 38.0221 118.075 38.1922 118.223 38.3351C118.371 38.4781 118.543 38.589 118.74 38.6679C118.943 38.7419 119.159 38.7788 119.391 38.7788H122.756V32.7076H124.679V39.7328Z" fill="#2E838F"/>
<path d="M128.435 31.0659H126.512V29.3281H128.435V31.0659ZM128.435 40.7015H126.512V32.7076H128.435V40.7015Z" fill="#2E838F"/>
<path d="M137.553 34.6303H134.196V40.7015H132.251V34.6303H129.751V32.7076H132.251V30.0972H134.196V32.7076H137.553V34.6303Z" fill="#2E838F"/>
<path d="M140.97 34.4306H147.721V30.0972H149.644V40.7015H147.721V36.3681H140.97V40.7015H139.047V30.0972H140.97V34.4306Z" fill="#2E838F"/>
<path d="M160.381 39.7328C160.381 39.8708 160.357 39.999 160.307 40.1173C160.258 40.2356 160.189 40.3392 160.1 40.4279C160.016 40.5117 159.915 40.5783 159.797 40.6276C159.684 40.6769 159.56 40.7015 159.427 40.7015H155.079C154.842 40.7015 154.588 40.6744 154.317 40.6202C154.051 40.5659 153.787 40.4797 153.526 40.3613C153.265 40.2381 153.011 40.0853 152.764 39.9029C152.523 39.7155 152.311 39.4912 152.128 39.2299C151.946 38.9637 151.798 38.658 151.685 38.3129C151.576 37.9678 151.522 37.5784 151.522 37.1445V32.7076H153.445V37.1445C153.445 37.396 153.487 37.6228 153.57 37.8249C153.659 38.0221 153.778 38.1922 153.925 38.3351C154.073 38.4781 154.246 38.589 154.443 38.6679C154.645 38.7419 154.862 38.7788 155.094 38.7788H158.459V32.7076H160.381V39.7328Z" fill="#2E838F"/>
<path d="M171 38.0024C171 38.1848 170.978 38.377 170.934 38.5792C170.894 38.7813 170.83 38.9834 170.741 39.1855C170.653 39.3827 170.537 39.5725 170.394 39.755C170.256 39.9374 170.086 40.1 169.884 40.243C169.686 40.3811 169.457 40.492 169.196 40.5758C168.935 40.6596 168.639 40.7015 168.309 40.7015H164.84C164.658 40.7015 164.466 40.6818 164.264 40.6423C164.061 40.598 163.859 40.5314 163.657 40.4427C163.46 40.3539 163.27 40.2406 163.088 40.1025C162.905 39.9595 162.743 39.7895 162.6 39.5923C162.462 39.3901 162.351 39.1584 162.267 38.8971C162.183 38.6309 162.141 38.3327 162.141 38.0024V29.3281H164.064V38.0024C164.064 38.239 164.138 38.4288 164.286 38.5718C164.434 38.7098 164.618 38.7788 164.84 38.7788H168.309C168.55 38.7788 168.737 38.7073 168.871 38.5644C169.009 38.4214 169.078 38.2341 169.078 38.0024V35.3993C169.078 35.1578 169.006 34.9704 168.863 34.8373C168.72 34.6993 168.535 34.6303 168.309 34.6303H164.84V32.7076H168.309C168.491 32.7076 168.683 32.7298 168.885 32.7742C169.087 32.8136 169.287 32.8777 169.484 32.9664C169.686 33.0552 169.879 33.171 170.061 33.314C170.244 33.452 170.404 33.6221 170.542 33.8242C170.68 34.0214 170.791 34.2507 170.875 34.512C170.958 34.7732 171 35.069 171 35.3993V38.0024Z" fill="#2E838F"/>
<path fill-rule="evenodd" clip-rule="evenodd" d="M98.8524 69.8129C105.638 67.8362 111.672 63.7394 116.133 58.0798L112.276 54.8102C108.463 59.6477 103.305 63.1495 97.5051 64.8389C91.7048 66.5285 85.5434 66.3239 79.8593 64.2529C74.1751 62.1818 69.2443 58.345 65.7377 53.2645C62.2311 48.1839 60.319 42.1062 60.2616 35.8587C60.2042 29.6111 62.0043 23.4967 65.417 18.3479C68.8296 13.1989 73.6891 9.26539 79.3342 7.0825C84.9792 4.89946 91.1358 4.57316 96.966 6.14781C102.796 7.72247 108.017 11.1218 111.918 15.8831L115.715 12.5378C111.151 6.96742 105.043 2.99049 98.2216 1.14824C91.4006 -0.694022 84.1979 -0.31226 77.5936 2.2416C70.9892 4.79562 65.304 9.39757 61.3114 15.4215C59.971 17.4439 58.8432 19.5936 57.9389 21.8338H40.7016L36.2228 11.5074C37.4271 10.3583 38.1775 8.73757 38.1775 6.94138C38.1775 3.45622 35.3522 0.631054 31.8671 0.631054C28.382 0.631054 25.5568 3.45622 25.5568 6.94138C25.5568 10.4265 28.382 13.2517 31.8671 13.2517C32.3175 13.2517 32.7569 13.2046 33.1806 13.1149L38.6823 25.4937L56.75 25.2621C56.4129 26.4168 56.1324 27.5894 55.9099 28.7752H27.1083C26.3861 26.0854 23.931 24.1054 21.0134 24.1054C17.5283 24.1054 14.7031 26.9306 14.7031 30.4158C14.7031 33.9009 17.5283 36.7261 21.0134 36.7261C23.9309 36.7261 26.3861 34.7461 27.1083 32.0565H55.4461C55.3328 33.2402 55.2765 34.4326 55.2785 35.6295L28.5858 35.9689L24.1685 47.2013H12.1746C11.2465 44.8719 8.97065 43.2258 6.31033 43.2258C2.82524 43.2258 0 46.0509 0 49.5361C0 53.0212 2.82524 55.8464 6.31033 55.8464C9.38549 55.8464 11.9469 53.6467 12.5069 50.735H26.314L30.6051 39.2502H55.4626C55.5905 40.5249 55.7845 41.7887 56.0428 43.0364H38.4299L33.5957 54.688C33.3598 54.6612 33.1199 54.6475 32.8768 54.6475C29.3917 54.6475 26.5665 57.4727 26.5665 60.9578C26.5665 64.443 29.3917 67.2682 32.8768 67.2682C36.3619 67.2682 39.1871 64.443 39.1871 60.9578C39.1871 58.9105 38.2122 57.0909 36.7013 55.9381L40.5754 46.0654H56.8059C57.8872 49.6963 59.5289 53.1451 61.6866 56.2715C65.7891 62.2153 71.5579 66.7041 78.2079 69.1272C84.858 71.5501 92.0664 71.7895 98.8524 69.8129ZM23.853 30.4158C23.853 31.9841 22.5817 33.2554 21.0134 33.2554C19.4451 33.2554 18.1737 31.9841 18.1737 30.4158C18.1737 28.8474 19.4451 27.5761 21.0134 27.5761C22.5817 27.5761 23.853 28.8474 23.853 30.4158ZM32.8768 63.7975C34.4451 63.7975 35.7164 62.5262 35.7164 60.9578C35.7164 59.3895 34.4451 58.1182 32.8768 58.1182C31.3085 58.1182 30.0371 59.3895 30.0371 60.9578C30.0371 62.5262 31.3085 63.7975 32.8768 63.7975Z" fill="#2E838F"/>
<path d="M106.542 48.7844C103.804 52.2117 100.069 54.7037 95.8529 55.9162C91.6372 57.1288 87.1489 57.0019 83.0084 55.5532C78.8678 54.1044 75.2795 51.4055 72.7394 47.8291C70.1993 44.2527 68.8327 39.9755 68.8286 35.589C68.8245 31.2022 70.183 26.9226 72.7164 23.3416C75.2499 19.7605 78.8331 17.0547 82.9709 15.5981C87.1087 14.1416 91.5967 14.0063 95.8147 15.2111C100.033 16.4157 103.772 18.9007 106.517 22.3226L102.247 25.7476C100.212 23.2103 97.4389 21.3679 94.3114 20.4747C91.184 19.5816 87.8564 19.6819 84.7885 20.7617C81.7205 21.8417 79.0638 23.8478 77.1854 26.5031C75.307 29.1582 74.2997 32.3314 74.3027 35.5837C74.3058 38.8363 75.319 42.0074 77.2024 44.6591C79.0858 47.3108 81.7463 49.3121 84.8163 50.3862C87.8862 51.4603 91.214 51.5544 94.3398 50.6553C97.4655 49.7562 100.235 47.9086 102.265 45.3675L106.542 48.7844Z" fill="#2E838F"/>
</svg>
