<svg width="27" height="25" viewBox="0 0 27 25" fill="none" xmlns="http://www.w3.org/2000/svg">
<path d="M25.6692 10.4019L15.0773 10.4014C14.6096 10.4014 14.2305 10.7637 14.2305 11.2108V14.445C14.2305 14.8919 14.6096 15.2544 15.0773 15.2544H21.042C20.3888 16.8745 19.1698 18.2314 17.6145 19.0935L20.1578 23.3018C24.2377 21.0465 26.6497 17.0893 26.6497 12.6595C26.6497 12.0287 26.6011 11.5778 26.5038 11.0701C26.4298 10.6844 26.0795 10.4019 25.6692 10.4019Z" fill="#167EE6"/>
<path d="M13.6643 20.1138C10.7453 20.1138 8.19702 18.5893 6.8284 16.3335L2.42578 18.759C4.66624 22.4706 8.86335 24.97 13.6643 24.97C16.0195 24.97 18.2418 24.3639 20.1562 23.3076V23.3018L17.6128 19.0934C16.4495 19.7384 15.1032 20.1138 13.6643 20.1138Z" fill="#12B347"/>
<path d="M20.1579 23.3079V23.3021L17.6146 19.0938C16.4512 19.7387 15.105 20.1141 13.666 20.1141V24.9703C16.0212 24.9703 18.2436 24.3642 20.1579 23.3079Z" fill="#0F993E"/>
<path d="M5.76225 12.5603C5.76225 11.185 6.15491 9.89833 6.82951 8.78639L2.42689 6.36084C1.31572 8.18492 0.681641 10.3033 0.681641 12.5603C0.681641 14.8172 1.31572 16.9356 2.42689 18.7597L6.82951 16.3341C6.15491 15.2222 5.76225 13.9355 5.76225 12.5603Z" fill="#FFD500"/>
<path d="M13.6643 5.00565C15.5678 5.00565 17.3162 5.65215 18.6819 6.72754C19.0188 6.99281 19.5085 6.97366 19.8171 6.67867L22.2146 4.38712C22.5647 4.05243 22.5398 3.50458 22.1657 3.19441C19.8776 1.29703 16.9005 0.149414 13.6643 0.149414C8.86335 0.149414 4.66624 2.64879 2.42578 6.36037L6.8284 8.78591C8.19702 6.53009 10.7453 5.00565 13.6643 5.00565Z" fill="#FF4B26"/>
<path d="M18.6836 6.72754C19.0206 6.99281 19.5103 6.97366 19.8189 6.67867L22.2163 4.38712C22.5664 4.05243 22.5414 3.50458 22.1674 3.19441C19.8793 1.29699 16.9022 0.149414 13.666 0.149414V5.00565C15.5695 5.00565 17.318 5.65215 18.6836 6.72754Z" fill="#D93F21"/>
</svg>
