<svg width="171" height="44" viewBox="0 0 171 44" fill="none" xmlns="http://www.w3.org/2000/svg">
<path d="M0 22C2.61416e-07 19.0322 0.605007 16.0952 1.77861 13.3655C2.95221 10.6359 4.67014 8.17013 6.82901 6.11666C8.98788 4.06319 11.543 2.46447 14.3407 1.4167C17.1384 0.368932 20.1208 -0.106212 23.1083 0.0198623C26.0959 0.145937 29.0268 0.870624 31.7248 2.15031C34.4228 3.42999 36.832 5.23822 38.8075 7.46615C40.7829 9.69409 42.2837 12.2957 43.2196 15.1143C44.1555 17.933 44.5072 20.9104 44.2533 23.8675L35.4187 23.1205C35.571 21.3463 35.36 19.5598 34.7985 17.8686C34.2369 16.1774 33.3364 14.6165 32.1511 13.2797C30.9659 11.9429 29.5203 10.858 27.9016 10.0902C26.2828 9.32237 24.5242 8.88756 22.7317 8.81192C20.9391 8.73627 19.1497 9.02136 17.4711 9.65002C15.7925 10.2787 14.2594 11.2379 12.9641 12.47C11.6688 13.7021 10.638 15.1815 9.93383 16.8193C9.22967 18.4571 8.86667 20.2193 8.86667 22L0 22Z" fill="#2E838F"/>
<path d="M0 22L8.70833 22V43.2143H0V22Z" fill="#2E838F"/>
<path d="M35.625 22H44.3333V43.2143H35.625V22Z" fill="#2E838F"/>
<path d="M91.8333 22C91.8333 34.1503 81.909 44 69.6667 44C57.4244 44 47.5 34.1503 47.5 22C47.5 9.84974 57.4244 0 69.6667 0C81.909 0 91.8333 9.84974 91.8333 22Z" fill="#DACFBF"/>
<path d="M117.167 1.49863e-06C120.157 1.88781e-06 123.116 0.60046 125.867 1.76524C128.617 2.93002 131.101 4.63503 133.17 6.77767C135.239 8.9203 136.85 11.4563 137.906 14.2329C138.962 17.0096 139.44 19.9695 139.313 22.9346C139.186 25.8997 138.456 28.8086 137.167 31.4863C135.877 34.164 134.055 36.5551 131.811 38.5157C129.566 40.4763 126.945 41.9658 124.105 42.8947C121.264 43.8235 118.264 44.1725 115.285 43.9206L116.038 35.1524C117.825 35.3035 119.625 35.0941 121.329 34.5368C123.033 33.9795 124.606 33.0858 125.953 31.9094C127.3 30.733 128.393 29.2984 129.167 27.6918C129.94 26.0852 130.378 24.3398 130.455 22.5608C130.531 20.7817 130.244 19.0057 129.61 17.3397C128.977 15.6738 128.01 14.1522 126.769 12.8666C125.527 11.581 124.037 10.558 122.387 9.85914C120.736 9.16027 118.961 8.8 117.167 8.8V1.49863e-06Z" fill="#2E838F"/>
<path d="M117.167 1.49863e-06V8.64286L95.7917 8.64286V5.71325e-07L117.167 1.49863e-06Z" fill="#2E838F"/>
<path d="M117.167 35.3571V44H95.7917V35.3571H117.167Z" fill="#2E838F"/>
<path d="M142.5 41.6429V33H171V41.6429H142.5Z" fill="#2E838F"/>
<path d="M142.5 25.1429V16.5H171V25.1429L142.5 25.1429Z" fill="#2E838F"/>
<path d="M142.5 8.64286V1.49863e-06L171 2.62223e-07V8.64286L142.5 8.64286Z" fill="#2E838F"/>
</svg>
