<svg width="32" height="32" viewBox="0 0 32 32" fill="none" xmlns="http://www.w3.org/2000/svg">
<g clip-path="url(#clip0_155_204)">
<path fill-rule="evenodd" clip-rule="evenodd" d="M24.9244 23.514C26.4294 23.0747 27.7676 22.1643 28.757 20.9066L27.9016 20.18C27.0559 21.255 25.9119 22.0332 24.6256 22.4086C23.3391 22.7841 21.9726 22.7386 20.7119 22.2784C19.4512 21.8182 18.3576 20.9656 17.5799 19.8366C16.8022 18.7075 16.3781 17.3569 16.3654 15.9686C16.3526 14.5802 16.7519 13.2215 17.5088 12.0773C18.2657 10.9331 19.3434 10.059 20.5955 9.57389C21.8475 9.08877 23.2129 9.01626 24.506 9.36618C25.799 9.7161 26.957 10.4715 27.8222 11.5296L28.6643 10.7862C27.6521 9.54832 26.2974 8.66455 24.7845 8.25516C23.2717 7.84577 21.6742 7.93061 20.2094 8.49813C18.7446 9.06569 17.4837 10.0883 16.5982 11.427C16.3009 11.8764 16.0508 12.3541 15.8502 12.852H12.0272L11.0338 10.5572C11.3009 10.3018 11.4674 9.94168 11.4674 9.54253C11.4674 8.76805 10.8407 8.14023 10.0678 8.14023C9.29482 8.14023 8.66822 8.76805 8.66822 9.54253C8.66822 10.317 9.29482 10.9448 10.0678 10.9448C10.1677 10.9448 10.2651 10.9344 10.3591 10.9144L11.5793 13.6653L15.5865 13.6138C15.5118 13.8704 15.4496 14.131 15.4002 14.3945H9.01232C8.85215 13.7968 8.30763 13.3568 7.66054 13.3568C6.88758 13.3568 6.26099 13.9846 6.26099 14.7591C6.26099 15.5335 6.88758 16.1614 7.66054 16.1614C8.30761 16.1614 8.85215 15.7214 9.01232 15.1237H15.2973C15.2722 15.3867 15.2597 15.6517 15.2602 15.9177L9.34002 15.9931L8.36031 18.4892H5.70019C5.49435 17.9715 4.98959 17.6057 4.39956 17.6057C3.62661 17.6057 3 18.2335 3 19.008C3 19.7825 3.62661 20.4103 4.39956 20.4103C5.0816 20.4103 5.64969 19.9215 5.77389 19.2744H8.83616L9.78788 16.7223H15.301C15.3294 17.0055 15.3724 17.2864 15.4297 17.5636H11.5233L10.4512 20.1529C10.3988 20.1469 10.3456 20.1439 10.2917 20.1439C9.51876 20.1439 8.89216 20.7717 8.89216 21.5462C8.89216 22.3207 9.51876 22.9485 10.2917 22.9485C11.0647 22.9485 11.6913 22.3207 11.6913 21.5462C11.6913 21.0912 11.475 20.6869 11.1399 20.4307L11.9992 18.2368H15.5989C15.8387 19.0436 16.2029 19.81 16.6814 20.5048C17.5913 21.8256 18.8708 22.8231 20.3457 23.3616C21.8206 23.9 23.4193 23.9532 24.9244 23.514ZM8.29033 14.7591C8.29033 15.1076 8.00837 15.3901 7.66054 15.3901C7.31271 15.3901 7.03073 15.1076 7.03073 14.7591C7.03073 14.4105 7.31271 14.128 7.66054 14.128C8.00837 14.128 8.29033 14.4105 8.29033 14.7591ZM10.2917 22.1772C10.6395 22.1772 10.9215 21.8947 10.9215 21.5462C10.9215 21.1977 10.6395 20.9152 10.2917 20.9152C9.94388 20.9152 9.6619 21.1977 9.6619 21.5462C9.6619 21.8947 9.94388 22.1772 10.2917 22.1772Z" fill="#2E838F"/>
<path d="M26.63 18.8448C26.0228 19.6064 25.1944 20.1602 24.2593 20.4296C23.3243 20.6991 22.3289 20.6709 21.4106 20.3489C20.4922 20.027 19.6964 19.4272 19.133 18.6325C18.5696 17.8377 18.2665 16.8872 18.2656 15.9125C18.2647 14.9376 18.566 13.9866 19.1279 13.1908C19.6898 12.395 20.4845 11.7937 21.4022 11.47C22.32 11.1464 23.3153 11.1163 24.2508 11.384C25.1864 11.6517 26.0157 12.2039 26.6245 12.9644L25.6775 13.7255C25.2261 13.1616 24.6111 12.7522 23.9174 12.5537C23.2238 12.3553 22.4858 12.3775 21.8054 12.6175C21.1249 12.8575 20.5357 13.3033 20.1191 13.8934C19.7025 14.4834 19.4791 15.1885 19.4797 15.9113C19.4804 16.6341 19.7051 17.3388 20.1228 17.928C20.5406 18.5173 21.1306 18.962 21.8115 19.2007C22.4924 19.4394 23.2305 19.4603 23.9237 19.2605C24.617 19.0607 25.2312 18.6501 25.6815 18.0855L26.63 18.8448Z" fill="#2E838F"/>
</g>
<defs>
<clipPath id="clip0_155_204">
<rect width="26" height="16" fill="white" transform="translate(3 8)"/>
</clipPath>
</defs>
</svg>
